<?xml version="1.0" encoding="UTF-8" standalone="no"?>
<!DOCTYPE svg PUBLIC "-//W3C//DTD SVG 1.1//EN" "http://www.w3.org/Graphics/SVG/1.1/DTD/svg11.dtd">
<svg width="100%" height="100%" viewBox="0 0 500 700" version="1.1" xmlns="http://www.w3.org/2000/svg" xmlns:xlink="http://www.w3.org/1999/xlink" xml:space="preserve" xmlns:serif="http://www.serif.com/" style="fill-rule:evenodd;clip-rule:evenodd;stroke-linejoin:round;stroke-miterlimit:2;">
    <g transform="matrix(1.14104,0,0,1.11374,-17.7815,-20.6795)">
        <path d="M453.78,51.099L453.78,614.55C453.78,632.505 439.552,647.082 422.026,647.082L47.337,647.082C29.812,647.082 15.584,632.505 15.584,614.55L15.584,51.099C15.584,33.145 29.812,18.568 47.337,18.568L422.026,18.568C439.552,18.568 453.78,33.145 453.78,51.099Z" style="fill:url(#_Linear1);"/>
        <path d="M453.78,51.099L453.78,614.55C453.78,632.505 439.552,647.082 422.026,647.082L47.337,647.082C29.812,647.082 15.584,632.505 15.584,614.55L15.584,51.099C15.584,33.145 29.812,18.568 47.337,18.568L422.026,18.568C439.552,18.568 453.78,33.145 453.78,51.099ZM449.74,51.099C449.749,43.26 446.651,36.156 441.64,31.005C436.622,25.847 429.69,22.639 422.026,22.623L47.337,21.867C39.457,21.852 32.311,25.114 27.132,30.4C21.945,35.694 18.725,43.013 18.711,51.099C18.711,51.099 18.332,232.287 18.143,389.17C17.998,508.943 17.978,614.55 17.978,614.55C17.99,622.846 21.288,630.356 26.608,635.788C31.92,641.212 39.252,644.559 47.337,644.543L422.026,643.519C429.821,643.501 436.874,640.239 441.975,634.988C447.066,629.749 450.205,622.52 450.187,614.55L449.74,51.099Z" style="fill:rgb(150,150,114);"/>
    </g>
    <defs>
        <linearGradient id="_Linear1" x1="0" y1="0" x2="1" y2="0" gradientUnits="userSpaceOnUse" gradientTransform="matrix(438.196,0,0,628.515,15.5836,332.825)"><stop offset="0" style="stop-color:rgb(227,228,206);stop-opacity:1"/><stop offset="1" style="stop-color:rgb(235,235,235);stop-opacity:1"/></linearGradient>
    </defs>
</svg>
